<?xml version="1.0" encoding="UTF-8"?>
<svg id="Livello_1" data-name="Livello 1" xmlns="http://www.w3.org/2000/svg" viewBox="0 0 296.57 100.39">
  <defs>
    <style>
      .cls-1, .cls-2 {
        fill: #00366a;
      }

      .cls-2 {
        stroke: #00366a;
        stroke-miterlimit: 10;
        stroke-width: 2px;
      }
    </style>
  </defs>
  <g>
    <path class="cls-1" d="M130.33,19.43v13.52c0,6.18-3.64,8.57-9.72,8.57s-9.29-2.39-9.29-7.65v-14.44l-3.17-1.26v-.89h9.93v.89l-3.2,1.26v14.17c0,4.23,1.98,6.18,6.34,6.18,4.61,0,6.66-1.88,6.66-6.01v-14.34l-3.17-1.26v-.89h8.82v.89l-3.2,1.26Z"/>
    <path class="cls-1" d="M153.12,25.27v16.08h-1.51l-11.63-14.38v12.16l2.95,1.06v.99h-7.96v-.99l2.95-1.06v-13.86l-2.95-1.06v-.99h5.83l10.26,12.64v-10.59l-2.95-1.06v-.99h7.95v.99l-2.95,1.06Z"/>
    <path class="cls-1" d="M159.13,41.18v-.99l2.95-1.06v-13.86l-2.95-1.06v-.99h9.29v.99l-2.95,1.06v13.86l2.95,1.06v.99h-9.29Z"/>
    <path class="cls-1" d="M188.07,25.27l-7.27,16.08h-1.8l-6.55-16.08-2.41-1.06v-.99h8.35v.99l-2.27,1.06,4.64,12.4,5.11-12.4-2.23-1.06v-.99h6.91v.99l-2.48,1.06Z"/>
    <path class="cls-1" d="M207.23,41.18h-15.05v-.99l2.95-1.06v-13.9l-2.95-1.02v-.99h14.94v4.3h-1.15l-1.37-2.87h-6.08v6.66h4.97l1.01-2.32h1.15v6.08h-1.15l-1.01-2.32h-4.97v6.83h6.19l1.8-3.04h1.15l-.43,4.64Z"/>
    <path class="cls-1" d="M225.12,41.18l-6.62-8.54h-1.08v6.49l2.81,1.06v.99h-9.14v-.99l2.95-1.06v-13.9l-2.95-1.02v-.99h9.11c3.02,0,6.3.65,6.3,4.23,0,2.63-1.58,4.13-4.5,4.71l5.65,6.97,2.23,1.06v.99h-4.75ZM219.54,24.66h-2.12v6.56h2.09c2.12,0,3.42-1.13,3.42-3.38s-1.12-3.18-3.38-3.18Z"/>
    <path class="cls-1" d="M237.86,41.53c-1.33,0-3.02-.27-5.83-.89v-4.41h1.33l1.4,3.55c1.19.24,1.62.31,2.45.31,2.48,0,3.82-1.16,3.82-3.07,0-1.23-.5-1.81-2.45-2.97l-2.92-1.74c-1.98-1.16-3.46-2.19-3.46-4.58,0-2.97,2.41-4.88,6.16-4.88,1.87,0,3.71.31,5.47.61v4.44h-1.29l-1.44-3.52c-1.01-.14-1.44-.1-2.05-.1-2.52,0-3.85,1.02-3.85,2.63,0,1.43,1.22,1.98,2.34,2.66l3.13,1.88c2.2,1.33,3.92,2.22,3.92,4.99,0,3.11-2.63,5.09-6.73,5.09Z"/>
    <path class="cls-1" d="M248.37,41.18v-.99l2.95-1.06v-13.86l-2.95-1.06v-.99h9.29v.99l-2.95,1.06v13.86l2.95,1.06v.99h-9.29Z"/>
    <path class="cls-1" d="M275.55,27.9l-1.29-3.07h-4.32v14.31l3.13,1.06v.99h-9.65v-.99l3.13-1.06v-14.31h-4.1l-1.44,3.07h-1.19v-4.68h16.88v4.68h-1.15Z"/>
    <path class="cls-1" d="M287.94,41.18v-.99l2.27-1.06-1.8-4.78h-6.23l-1.91,4.78,2.23,1.06v.99h-7.05v-.99l2.59-1.06,7.38-16.08h2.16l6.41,16.08,2.59,1.06v.99h-8.64ZM288.04,20.93l-7.24-5.16h5.18l3.92,5.16h-1.87ZM285.52,26.43l-2.74,6.49h5.18c-.83-2.15-1.58-4.34-2.45-6.49Z"/>
    <path class="cls-1" d="M119.21,79.12h-9.25v-.99l2.95-1.06v-13.86l-2.95-1.06v-.99h9.72c5.94,0,10.11,2.49,10.11,8.57s-4.36,9.39-10.58,9.39ZM119.32,62.77h-3.02v14.75h2.66c4.89,0,7.09-3.14,7.09-7.58,0-4.17-2.02-7.17-6.73-7.17Z"/>
    <path class="cls-1" d="M133.03,79.12v-.99l2.95-1.06v-13.86l-2.95-1.06v-.99h9.29v.99l-2.95,1.06v13.86l2.95,1.06v.99h-9.29Z"/>
    <path class="cls-1" d="M169.57,67.31c-1.55,1.09-3.71,1.71-6.33,1.71h-2.63v7.99l3.92,1.23v.89h-10.69v-.89l3.2-1.23v-19.64l-3.2-1.26v-.89h9.54c3.31,0,5.22.51,6.77,1.81,1.44,1.2,2.16,2.87,2.16,4.95,0,2.25-.97,4.13-2.74,5.33ZM163.2,56.65h-2.59v10.93h1.73c3.92,0,6.23-1.74,6.23-5.57,0-3.38-1.73-5.36-5.36-5.36Z"/>
    <path class="cls-1" d="M174.47,79.12v-.99l2.95-1.06v-13.86l-2.95-1.06v-.99h9.29v.99l-2.95,1.06v13.86l2.95,1.06v.99h-9.29Z"/>
    <path class="cls-1" d="M193.37,79.47c-1.33,0-3.02-.27-5.83-.89v-4.41h1.33l1.4,3.55c1.19.24,1.62.31,2.45.31,2.48,0,3.82-1.16,3.82-3.07,0-1.23-.5-1.81-2.45-2.97l-2.92-1.74c-1.98-1.16-3.46-2.19-3.46-4.58,0-2.97,2.41-4.88,6.16-4.88,1.87,0,3.71.31,5.47.61v4.44h-1.3l-1.44-3.52c-1.01-.14-1.44-.1-2.05-.1-2.52,0-3.85,1.02-3.85,2.63,0,1.43,1.22,1.98,2.34,2.66l3.13,1.88c2.2,1.33,3.92,2.22,3.92,4.99,0,3.11-2.63,5.09-6.73,5.09Z"/>
    <path class="cls-1" d="M213.31,79.12v-.99l2.27-1.06-1.8-4.78h-6.23l-1.91,4.78,2.23,1.06v.99h-7.05v-.99l2.59-1.06,7.38-16.08h2.16l6.41,16.08,2.59,1.06v.99h-8.64ZM210.9,64.37l-2.74,6.49h5.18c-.83-2.15-1.58-4.34-2.45-6.49Z"/>
  </g>
  <g>
    <path class="cls-1" d="M31.48,90.97l1.29-3.88-2.26-.29.12-.35c.86.02,1.5-.04,2.38-.21.59-.11.68-.14,1.05-.29l.35.12-1.76,5.3,1.19.86-.1.31-3.76-1.25.1-.3h1.41Z"/>
    <path class="cls-1" d="M36.76,95.12l.21-1.83.46.05.32,1.33c.26.07.47.12.86.17.78.09,1.2.02,1.63-.24.42-.27.71-.72.77-1.23.12-1.01-.51-1.73-1.61-1.86l-.42-.05.07-.58.15.02c1.21.14,1.88-.32,2-1.4.11-.97-.39-1.55-1.44-1.67-.31-.04-.73-.06-.99-.05l-.75,1.44-.45-.05.21-1.78c.97-.13,1.89-.18,2.45-.12,1.58.19,2.47,1.01,2.34,2.16-.12,1.03-.96,1.7-2.27,1.83,1.38.24,2.19,1.11,2.06,2.25-.17,1.43-1.55,2.2-3.53,1.97-.55-.06-.87-.11-1.86-.35l-.2-.04h0Z"/>
    <path class="cls-1" d="M46.51,93.06l.21-.35.63-1.02.68-1.18.79-1.36.12-.22.41,3.84-2.83.3h0ZM49.63,95.5l1.09-.12-.2-1.91,1.2-.13-.09-.83-1.2.13-.58-5.47-.51.05-3.89,6.38.04.41,3.94-.42.2,1.91h0Z"/>
    <path class="cls-1" d="M55.62,94.34l-.6-1.74.44-.15.87,1.06c.27-.05.47-.09.85-.22.74-.25,1.09-.5,1.37-.92.26-.43.33-.95.16-1.44-.33-.96-1.21-1.34-2.25-.98l-.4.14-.19-.55.15-.05c1.16-.4,1.55-1.1,1.2-2.12-.32-.92-1.02-1.23-2.02-.89-.29.1-.69.26-.92.38l-.06,1.62-.43.15-.58-1.69c.82-.54,1.62-.98,2.16-1.16,1.51-.52,2.67-.15,3.04.94.34.99-.13,1.95-1.26,2.63,1.35-.38,2.45.06,2.82,1.14.47,1.36-.45,2.66-2.34,3.3-.52.18-.83.27-1.83.49l-.2.05h0Z"/>
    <path class="cls-1" d="M17.63,83.73c-.75-.65-.84-1.81-.17-2.59.66-.77,1.83-.87,2.58-.23.76.65.85,1.82.18,2.6-.66.77-1.83.87-2.59.22h0Z"/>
    <polygon class="cls-1" points="15.52 72.06 15.24 72.23 14.26 71.54 8.13 75.4 8.33 76.58 8.05 76.76 6.19 73.8 6.47 73.63 7.46 74.33 13.59 70.47 13.38 69.27 13.66 69.1 15.52 72.06 15.52 72.06"/>
    <polygon class="cls-1" points="12.92 68.18 12.61 68.3 11.78 67.43 5.02 70.02 4.98 71.23 4.67 71.35 3.89 69.31 8.12 62.52 2.9 64.52 2.87 65.73 2.56 65.85 1.5 63.08 1.81 62.96 2.64 63.84 10.27 60.92 10.41 61.29 5.51 69.05 11.52 66.75 11.54 65.53 11.85 65.41 12.92 68.18 12.92 68.18"/>
    <path class="cls-1" d="M8.62,54.51l-1.95.07-.02-.48,1.62-.7c.04-.35.05-.61.03-.98-.04-1.23-.55-1.86-1.48-1.83-.65.02-.94.26-1.51,1.19l-.79,1.32c-.41.72-.62.95-1.01,1.21-.34.22-.68.33-1.11.34-1.39.05-2.36-.94-2.42-2.46,0-.22.02-.62.05-1,.03-.29.06-.53.1-.69l.1-.56.03-.19,1.88-.06.02.49-1.57.68v.11c-.02.35-.03.44-.03.68.05,1.32.48,1.93,1.35,1.9.61-.02.87-.23,1.42-1.16l.84-1.43c.51-.87.59-.97.95-1.24.36-.26.82-.41,1.32-.43,1.47-.05,2.45,1.02,2.5,2.74.01.41-.04,1.02-.16,1.59l-.15.75-.03.15h0Z"/>
    <path class="cls-1" d="M.35,46.43l-.33-.06.64-3.42.33.06.25,1.18,5.2.98c1.56.29,2.38-.25,2.66-1.76.3-1.59-.25-2.42-1.76-2.7l-5.27-.99-.66,1.01-.33-.06.57-3.04.33.06.25,1.19,4.98.94c1.33.25,2.01.73,2.38,1.69.25.65.28,1.28.1,2.26-.41,2.2-1.47,3.04-3.39,2.68l-5.31-1-.66,1.01H.35Z"/>
    <path class="cls-1" d="M4.09,32.95l.37-.84c.3-.69.6-.97,1.12-1.11.45-.11.94-.04,1.44.18.51.22.88.53,1.1.93.29.53.27,1.07-.09,1.9l-.24.56-3.69-1.62h0ZM12.24,35.03l-.3-.13-.98,1.07-2.72-1.19.37-.85c.79-1.79.36-3.33-1.11-3.97-.69-.3-1.34-.31-1.96-.02-.65.31-1.09.84-1.56,1.9l-1.35,3.07.3.13.87-.83,6.63,2.91-.02,1.2.3.13,1.51-3.43h0Z"/>
    <path class="cls-1" d="M8.48,24.83l.54-.75c.6-.83,1.44-.93,2.32-.29.89.64,1.11,1.62.54,2.42l-.52.72-2.88-2.09h0ZM12.08,26.85l5.11.12,1.24-1.71-.27-.19-.99.56-4.51.02c.6-1.19.37-2.34-.59-3.04-.55-.4-1.16-.52-1.76-.34-.6.17-.93.44-1.54,1.29l-2.11,2.9.27.19,1.03-.63,5.86,4.25-.28,1.17.27.19,2.05-2.83-.27-.19-1.04.64-2.77-2,.28-.39h0Z"/>
    <polygon class="cls-1" points="17.84 20.21 20.24 22.92 22.43 20.98 22.07 19.37 22.4 19.08 23.6 20.74 18.86 24.93 18.64 24.68 19.16 23.6 14.37 18.17 13.23 18.56 13.01 18.31 17.71 14.16 19.03 15.65 18.7 15.94 17.27 15.26 15.14 17.14 17.49 19.81 19.29 18.22 18.84 17.03 19.14 16.77 21.06 18.94 20.76 19.21 19.64 18.62 17.84 20.21 17.84 20.21"/>
    <polygon class="cls-1" points="28.29 15.46 27.77 8.33 30.03 7.22 30.17 7.52 29.37 8.43 32.56 14.93 33.77 14.85 33.92 15.15 30.78 16.69 30.63 16.39 31.44 15.48 28.56 9.62 29.12 17.57 28.88 17.69 22.98 12.36 25.85 18.22 27.07 18.14 27.21 18.44 24.55 19.74 24.4 19.44 25.2 18.54 22.01 12.04 20.81 12.11 20.66 11.81 23 10.66 28.29 15.46 28.29 15.46"/>
    <path class="cls-1" d="M37.22,10.06l1.28-3.98.51,3.74-1.78.24h0ZM39.49,13.45l-.92.61.04.33,5.9-.8-.05-2.05-.47.06-.61,1.54-2.64.36-.47-3.45,2.13-.29.6,1.11.41-.06-.39-2.87-.41.06-.29,1.24-2.13.29-.5-3.66,2.57-.35.81,1.36.46-.06-.27-1.97-5.2.7-3.1,8.52-.92.61.04.33,2.87-.39-.04-.33-1.05-.35,1.06-3.24,2.11-.29.41,3.06h0Z"/>
    <path class="cls-1" d="M54.35,6.79l1.36.39c1.17.33,1.78.84,2.14,1.78.3.79.29,1.67-.01,2.74-.36,1.25-.93,2.05-1.82,2.58-.81.47-1.46.52-2.55.21l-1.21-.35,2.1-7.35h0ZM53.42,15.08c1.27.36,2.21.37,3.11,0,1.24-.5,2.17-1.62,2.61-3.16.34-1.2.28-2.23-.18-3.19-.51-1.07-1.27-1.62-2.93-2.09l-3.79-1.08-.09.32.94.75-1.99,6.96-1.2.14-.09.32,3.6,1.03h0Z"/>
    <polygon class="cls-1" points="59.03 17.08 59.18 16.79 60.38 16.9 63.75 10.49 62.98 9.56 63.14 9.26 66.23 10.89 66.08 11.18 64.86 11.07 61.49 17.48 62.27 18.41 62.12 18.71 59.03 17.08 59.03 17.08"/>
    <path class="cls-1" d="M70.78,21.63l-1.57,1.93-.17-.07c-1.03-.45-1.75-.86-2.45-1.43-1.14-.93-1.68-1.84-1.73-2.96-.05-1.1.34-2.13,1.14-3.13.94-1.16,2.12-1.83,3.37-1.9,1.16-.06,2.19.31,3.36,1.26.7.57,1.1.98,1.69,1.75l.11.14-1.24,1.53-.39-.32.56-1.64c-.19-.24-.41-.46-.76-.74-1.07-.87-1.89-1.18-2.86-1.04-1.02.12-1.91.69-2.73,1.7-1.51,1.86-1.41,3.7.3,5.09.37.3.77.59,1.02.72l1.38-1.7-.58-1.05.21-.26,2.71,2.2-.21.26-1.16-.36h0Z"/>
    <polygon class="cls-1" points="70.4 25.14 70.67 24.94 71.7 25.57 77.56 21.32 77.28 20.14 77.55 19.95 78.83 21.72 76.5 29.36 81.02 26.08 80.74 24.91 81.01 24.72 82.75 27.12 82.48 27.31 81.45 26.67 74.83 31.47 74.6 31.15 77.33 22.38 72.12 26.16 72.41 27.34 72.14 27.54 70.4 25.14 70.4 25.14"/>
    <polygon class="cls-1" points="75.89 33.33 76.19 33.19 77.08 34 83.65 30.97 83.61 29.76 83.91 29.63 85.37 32.8 85.07 32.94 84.18 32.11 77.6 35.14 77.65 36.36 77.35 36.5 75.89 33.33 75.89 33.33"/>
    <polygon class="cls-1" points="79.36 39.99 86.54 38.04 86.01 36.11 84.33 35.93 84.21 35.47 86.3 34.9 88.22 41.98 86.13 42.55 86.01 42.1 87.37 41.1 86.86 39.24 79.68 41.19 79.6 42.65 79.28 42.74 78.22 38.85 78.54 38.77 79.36 39.99 79.36 39.99"/>
    <path class="cls-1" d="M87.42,48.29c-.42.14-.63.22-1.17.43l-2.12.83-.12-2.37,3.41,1.11h0ZM83.62,49.78l-2.69,1.09-.54-.98-.33.02.16,3.36.33-.02.44-1.03,7.92-3.29-.04-.74-8.23-2.92-.54-.99-.33.02.14,2.9.33-.02.44-1.03,2.79.87.14,2.78h0Z"/>
    <polygon class="cls-1" points="80.42 56.38 87.76 57.59 88.09 55.62 86.63 54.76 86.71 54.29 88.85 54.64 87.66 61.88 85.52 61.53 85.59 61.07 87.25 60.73 87.56 58.82 80.22 57.61 79.54 58.91 79.21 58.85 79.86 54.88 80.19 54.94 80.42 56.38 80.42 56.38"/>
    <polygon class="cls-1" points="78.6 61.17 78.91 61.27 78.99 62.48 85.84 64.82 86.64 63.91 86.96 64.02 85.83 67.33 85.51 67.22 85.44 66.01 78.59 63.67 77.78 64.58 77.47 64.47 78.6 61.17 78.6 61.17"/>
    <path class="cls-1" d="M77.18,66.19l1.72.92-.22.42-1.75-.2c-.21.28-.35.51-.52.83-.58,1.09-.45,1.89.37,2.33.57.31.95.25,1.9-.28l1.35-.75c.72-.41,1.01-.51,1.48-.55.4-.02.75.06,1.14.26,1.23.65,1.58,2,.86,3.34-.11.2-.33.53-.54.84-.17.24-.32.43-.43.55l-.37.43-.12.14-1.66-.88.23-.43,1.69.2.06-.09c.19-.29.24-.37.35-.58.62-1.17.55-1.91-.22-2.32-.54-.29-.86-.24-1.81.3l-1.44.82c-.88.49-1,.55-1.44.6-.45.05-.92-.05-1.36-.29-1.3-.69-1.61-2.1-.8-3.62.19-.36.55-.86.93-1.3l.5-.57.1-.11h0Z"/>
    <path class="cls-1" d="M72.57,82.58c-.73.68-1.9.62-2.59-.12-.69-.75-.66-1.92.07-2.59.74-.68,1.91-.63,2.6.11.69.75.66,1.92-.08,2.6h0Z"/>
    <path class="cls-1" d="M42.14,53.27s.01.06.02.1c0,.03-.01.07-.01.1,0,.21.13.36.24.5l.13.18c.17.25.34.36.61.48.2.09.37.03.52-.01.12-.04.22-.07.33-.03l.16.11.26.16c.23.07.39-.02.54-.1l.29-.11.31-.02.42-.04.11-.02c.33-.05.64-.09.76-.26l.04-.17-.22-.23-.08-.05-.35-.15-.09-.02-.19-.09-.4-.12-.36.1-.24.08-.47-.03-.09-.02-.25-.11-.4-.15c-.24-.01-.4.06-.58.15l-.17.08-.14.04c-.21,0-.25-.02-.39-.27.03-.06.18-.34.18-.34.03-.03.45-.57.53-.67,0,0,0,0,0,0,0,0,0,0,0,0h0s0-.02.02-.03c.03-.04.06-.08.06-.13,0-.03-.01-.06-.04-.09-.09-.09-.2-.01-.24.01-.12.08-.84.71-.84,1.16h0Z"/>
    <path class="cls-1" d="M41.31,50.03l.27-.03-.03.03c-.12.11-.22.2-.18.31.01.04.05.1.17.12.17.02.27-.09.34-.18l.08-.09.21-.14.3-.22.31-.43c.1-.25.1-.42.1-.65l-.11-.57-.02-.07-.05-.15-.18-.44c-.13-.22-.44-.71-.66-.59-.13.07-.13.19-.13.25v.04s-.12.05-.12.05c-.19.05-.36-.05-.58-.18-.18-.1-.38-.22-.63-.26-.49-.08-.78-.07-1.26.01-.43.08-.69.2-1.04.51-.21.18-.37.32-.49.63l-.21.69h0c0,.09.03.14.07.17.03.03.07.04.11.04.05.13.23.26.69.55.23.14.96.28,1.36.27,0,0,0,0,.01,0h.1s0-.02,0-.02c.01,0,.02,0,.03,0,0,0,.01,0,.02,0,.02,0,.05,0,.07,0,.1,0,.2-.01.29-.04.26-.02.56-.05.56-.05l.53-.12c.22-.07.39-.12.65-.07-.03.11-.07.23-.13.36,0,0,0,0,0,0-.01-.11-.12-.19-.22-.18l-.26.03-.5.08-.72.18c-.11.03-.17.13-.15.24.03.11.13.17.24.15l.72-.18.44-.07h0ZM38.47,49.1c-.13-.08-.4-.25-.5-.34.01-.08.03-.15.05-.21.01-.02.03-.05.04-.07l.23-.37c.13-.13.22-.23.33-.32.02-.01.05-.02.07-.04-.09.18-.14.38-.14.6,0,.34.13.64.33.88-.17-.03-.31-.07-.4-.13h0ZM40.21,48.33c-.09,0-.17-.08-.17-.18s.08-.18.17-.18.17.08.17.18-.07.18-.17.18h0ZM41.12,49.11l-.23.05c.17-.23.27-.51.27-.81,0-.21-.05-.41-.13-.58.1.04.2.08.28.13.07.06.14.12.21.2.25.29.37.56.44.89,0,.03,0,.05,0,.07-.34-.06-.6-.02-.83.05h0Z"/>
    <path class="cls-1" d="M38.04,45.51c.63-.14,1-.16,1.64-.1l.32.02.55.07.64.22.38.15c.1.04.21-.01.25-.12.04-.1-.02-.22-.12-.26l-.37-.14-.69-.24-.63-.08-.3-.02c-.68-.07-1.1-.04-1.77.11-.11.02-.18.13-.15.24.02.11.13.18.24.15h0Z"/>
    <path class="cls-1" d="M45.8,58.94s0,0,0,0c-.18.15-.27.22-.47.27l-.11.03c-.24.07-.3.09-.76.02l-.33-.08-.53-.09h-.14c-.27-.02-.35-.02-.38.09l-.03.08.07.07.18.17c.28.26.57.53,1.25.52l.26-.02h.3s.39.16.39.16l.38.22-.07-.31-.11-.53s0-.02,0-.03c0-.15.09-.24.26-.37h0s0,0,0,0l-.16-.21h0Z"/>
    <path class="cls-1" d="M47.76,57.41h0l-.05-.1c-.09-.21-.13-.34-.05-.47l-.18-.19s-.02.03-.04.04h0s0,0,0,0c-.11.09-.21.22-.21.46,0,.07.01.16.03.25-.1,0-.19,0-.3-.03l-.48-.23-.42-.4-.17-.18c-.13-.13-.28-.13-.4-.13h-.13s-.22,0-.39.03c-.04,0-.08,0-.08,0,.01,0,.02.01.03.01,0,0-.01,0-.02,0,0,0,0-.01,0-.01l-.31.09h-.09s-.12-.04-.12-.04l-.13-.02-.3-.03-.49.17-.32.26-.15.15-.14.14-.34.24c-.2.06-.32.06-.55.02l-.29-.08c.09-.21.03-.4-.03-.57l-.04-.13-.26.05c.01.1.02.2.02.28,0,.1-.03.19-.08.26h0l-.08.09c-.15.13-.29.2-.43.2-.06-.01-.13-.01-.19-.04h0l-.1.24c.1.04.2.06.3.06.25.03.48-.03.66-.16.12.14.25.24.46.33.32.14.56.12.86.09h.14s.45-.07.45-.07l.55-.06.28.07.4.08.37-.12c.11-.06.18-.09.27-.08,0,0,.21.06.34.1.04.01.08.02.08.02.03,0,.07.01.11,0,.09.01.52.08.52.08.46.06.86-.02,1.14-.24l.07-.08c.11.1.25.17.41.2.26.04.49-.05.62-.23l.15-.21h-.41c-.26.02-.38,0-.45-.11h0Z"/>
    <path class="cls-1" d="M32.31,42.02s.03,0,0,0h0Z"/>
    <path class="cls-1" d="M50.85,47.2c-.39-.12-.61-.17-1-.18-.58-.01-.94-.02-1.49.18-.35.13-.6.24-.9.54l-.16.15c-.21.19-.41.37-.47.73-.05.28-.05.45,0,.7l.06.31.36-.51c-.01.09-.02.18-.02.28v.28s.26-.08.26-.08c.35-.1.49-.06.7,0l.37.1.49.11.85.14s.22,0,.22,0c.35,0,.65.01,1.04-.16l.84-.48v-.11s-.01,0-.01-.01l.11-.09c.19-.15-.04-.85-.22-1.14-.34-.53-.55-.61-1.01-.76h0ZM48.62,49.3l-.31-.08c-.18-.06-.37-.09-.64-.06.04-.29.11-.53.29-.82.04-.06.08-.1.12-.15l.2-.17c.11-.09.2-.16.3-.21-.12.2-.19.44-.19.69,0,.3.1.57.26.8h-.02ZM50.09,48.53c-.09,0-.17-.08-.17-.18s.07-.18.17-.18.17.08.17.18-.07.18-.17.18h0ZM50.99,49.42c-.18.08-.33.11-.48.12.29-.25.48-.62.48-1.04,0-.17-.03-.33-.09-.48.11.07.22.16.34.27.17.16.25.42.31.62,0,.06.02.11.02.18-.15.09-.57.33-.57.33h0Z"/>
    <path class="cls-1" d="M49.41,50.11l-.32-.12-.65-.2-.85.02-.21.03c-.11.01-.19.12-.17.22.02.11.11.19.22.17l.22-.03.74-.02.54.17.35.14c.1.04.21-.01.25-.12.04-.1-.02-.22-.12-.26h0Z"/>
    <path class="cls-1" d="M65.39,29.57s-.05-.01-.08-.02l-.35-.05c-.34-.07-.68-.09-1.03-.08-.63.02-1.26.18-1.84.46.01-.05.04-.1.05-.16.15-.75-.02-1.54-.5-2.34-.86-1.46-2.71-2.96-5.38-4.32.47-.36.77-.94.77-1.57,0-.05,0-.09,0-.14-.04-.52-.28-.98-.64-1.31-.05-.07-.11-.14-.2-.17-.01,0-.03,0-.04-.02,0,0,0,0,0,0,0,0-.06-.02-.07-.03-.2-.12-.42-.21-.65-.25,0,0-.05-.02-.05-.02,0,0,0,0,.01,0-.03,0-.05-.02-.08-.02-2.83-.96-7.17-1.07-11.94-.28-4.32-.59-8-.4-10.56.49-.02,0-.03.01-.05.01,0,0,0,0,.01,0,0,0-.04.02-.05.02-.24.04-.45.13-.65.25-.01,0-.07.03-.07.03,0,0,0,0,0,0-.01,0-.03,0-.04.02-.08.04-.15.1-.2.17-.36.33-.6.79-.64,1.31,0,.06,0,.12,0,.18,0,.52.16.97.43,1.3-3.15,1.67-5.19,3.6-5.53,5.4-.07.36-.07.72,0,1.07.01.07.04.13.06.19-.39-.11-.8-.17-1.21-.18-.32,0-.64.02-.95.09.04,0-.31.04-.31.04-.03,0-.05,0-.08.02-2.26.64-4.23,2.54-5.73,5.29-.05.06-.09.12-.11.21-2.11,3.98-3.26,9.65-2.95,15.81.25,5.03,1.46,9.71,3.49,13.54.41.77.71,1.33,1.18,2.02,0,0,2.16,3.36,2.16,3.36.67.99,1.96,2.46,2.72,3.09,0,0-.06-.07-.07-.07l.51.49.31.26s.06.05.09.06l.72.43c.74.38,1.22.55,2.03.5.12,0,.24-.01.36-.03.88-.13,1.69-.72,2.17-1.6,0-.02.05-.1.05-.1.06-.13.11-.23.15-.32,1,.93,2.09,1.84,3.26,2.71-.18.3-.3.65-.3,1.02,0,.28.06.55.17.8-.22,0-.45,0-.65-.02h0c-.21,0-.41.03-.61.07-1.18.25-2.05,1.21-2.05,2.35,0,.69.28,1.3.72,1.74.32.32.72.56,1.17.67.04.02.06.06.1.07.39.12.79.21,1.21.29,2.98.55,6.8.03,10.83-1.39.02.01.04.03.07.04,4.52,1.55,8.64,1.91,11.64,1.01.03,0,.06-.01.09-.02.03,0,.04-.02.06-.04.09-.03.17-.07.26-.1.09-.03.17-.06.26-.1.83-.4,1.41-1.23,1.41-2.23,0-1.07-.75-1.96-1.79-2.29-.26-.08-.54-.14-.84-.14-.21.01-.44.02-.68.02.11-.25.17-.52.17-.8s-.12-.62-.25-.9c1.15-.85,2.22-1.75,3.2-2.67.03.13.06.26.09.39l.08.3s.03.09.05.13c.41.76,1.11,1.28,1.91,1.47.19.05.39.07.59.08.89.14,1.38-.07,2.03-.4.03-.02.75-.45.75-.45.02-.01.07-.05.09-.07l.34-.28.5-.49s-.08.09-.09.09c.76-.64,2.05-2.11,2.71-3.08,0,0,2.18-3.37,2.18-3.37.46-.68.9-1.41,1.31-2.17,2.11-3.96,3.32-8.66,3.59-13.97.31-6.15-.84-11.82-2.94-15.8h0c-.01-.16-.08-.28-.19-.36-1.49-2.67-3.43-4.52-5.65-5.15h0ZM56.43,24.54c.22.02.44.08.63.2.03.02.05.02.08.03,2.51,1.5,3.99,3.11,3.99,4.41,0,.11-.01.22-.03.33-.09.43-.36.82-.8,1.17-.64.25-1.27.32-1.87.17-.04,0-.1-.01-.14-.01l-.55-.02-1.07-.02c-.89.1-2.95.46-3.59,1.7,0,0,0-.02.01-.02-.02.03-.04.06-.05.09-.09.13-.15.25-.19.37-.56-.5-1.26-.84-2.07-.87h-.25s-.46,0-.46,0c-.17-.35-.33-.85-.32-1.08.03-.43.18-.79.43-1,.21-.18.49-.25.82-.22.17.02.49.19.67.28l.14.07c.2.1.44.07.6-.09.16-.15.21-.4.12-.6-.12-.28-.24-.64-.23-.74.03-.39.2-.74.49-.99.27-.24.61-.35.97-.33.22.02.44.09.63.22.21.14.49.11.67-.07.18-.18.21-.45.07-.67-.21-.33-.31-.55-.29-.86.03-.43.22-.81.54-1.09.3-.26.67-.38,1.06-.36h0ZM54.83,49s-.57-.83-.57-.83c-.3-.35-.53-.63-.53-1.35,0-.17.02-.38.05-.61.18.01.36,0,.52,0,.1.47.34,1.09,1.01,1.48.05.18.1.38.1.38.04.15.08.29.12.43.01.04.02.09.03.13.03.11.05.23.07.34,0,.04.02.08.02.13.02.15.03.31.03.47,0,.02,0,.03,0,.05,0,.17-.02.35-.05.53-.08.45-.25.85-.44,1.12-.07.09-.14.17-.21.22-.09.07-.18.12-.27.13-.2.02-.34,0-.42-.08-.03-.03-.04-.08-.06-.13.14-.04.29-.11.44-.25.31-.29.41-.68.41-1.05,0-.53-.21-1.02-.24-1.11h0ZM53.53,52.29c.08.08.19.16.32.23-.2,1.53-.57,3.4-1.57,5.06-.13.22-.25.41-.37.58-.04.04-.08.09-.1.15-.42.59-.83.99-1.44,1.54-.53.47-.85.72-1.5,1.13l-.83.55c-1,.69-1.7,1.16-2.9,1.2l.37-.07.5-.1c.11-.02.2-.13.18-.24-.02-.11-.1-.18-.21-.16l-.58.12-.42.08-.35-.08-.67-.12c-.11-.02-.18.05-.2.16-.02.11.09.22.2.24l.56.11.33.07s-.02,0-.04,0c-.64-.02-1.11-.12-1.52-.26,0,0,0,0,0,0-.41-.15-.78-.35-1.2-.58l-1.14-.59-.77-.33c-.65-.26-1.08-.44-1.96-1.18-.91-.77-1.26-1.43-1.81-2.53-.97-1.95-1.25-3.24-1.1-5.16.03-.03.06-.05.08-.08.56-.57.46-1.48.44-1.59-.02-.18-.18-.31-.35-.39-.15-.07-.35-.02-.5.06-.05-.05-.07-.15-.07-.26,0-.21.07-.49.15-.68,0,0,.41-.58.41-.58.45-.54.97-1.15.7-2.96,0,0-.06-.16-.11-.32.23-.59.13-1.29.11-1.38-.03-.17-.14-.31-.29-.39-.15-.08-.33-.07-.49,0-.04.02-.08.03-.12.04h0s.09-.04.09-.04c.2-.07.52-.19.78-.5l.03.02c.54.28,1.4.28,1.98-.26.92-.85.75-1.84.54-2.24-.04-.07-.09-.12-.15-.17.06,0,.11.01.17.02.44.02,1.21-.03,1.93-.5.4.33.88.54,1.32.54.92,0,1.68-.44,2.12-1.21.12-.07.23-.14.34-.23.41.93,1.24,1.53,2.28,1.53.58,0,1.34-.32,1.77-.86.47.51,1.02.75,1.5.86-.01.02-.04.03-.05.05-.22.4-.38,1.39.54,2.24.58.54,1.44.54,1.98.26l.03-.02c.26.31.58.43.78.5,0,0,.05.02.09.04h0s-.09-.02-.12-.04c-.15-.08-.33-.08-.48,0-.15.08-.26.22-.29.39-.03.2-.16,1.18.35,1.77l-.05.15c-.05.35-.07.65-.07.91,0,1.13.41,1.61.77,2.05l.43.6c.08.18.14.45.14.66,0,.12-.02.21-.07.27-.15-.09-.35-.13-.5-.06-.17.07-.33.2-.35.39-.01.1-.12,1.02.44,1.59h0ZM49.97,68.89c-.41.4-.8.78-1.27,1.07-2.61,1.6-5.93,3.3-10.97,4.09-.23-.07-.4-.29-.4-.56s.18-.5.42-.56c0,0,.01,0,.02,0,.04,0,.08-.02.11-.03.12-.03.26-.08.26-.08,2.63-.92,6.23-2.31,8.57-3.76.74-.46,1.4-1.04,2.04-1.59l.1-.08c.18.64.65,1.15,1.26,1.38l-.15.13h0ZM50.71,69.65l.43-.38c.13.76.63,1.37,1.3,1.66l-1.45.94-.49.3c-4.95,3.07-11.1,4.7-15.47,4.94-.25-.17-.4-.46-.4-.77,0-.24.11-.47.28-.64.05-.03.1-.07.14-.12.16-.11.35-.19.55-.19,6.56-.61,10.58-2.63,13.66-4.52.57-.35,1.02-.79,1.45-1.22h0ZM39.43,70.79s.2.12.45.26c-.66.25-1.34.5-2.06.75,0,0-.02,0-.05.02-.5-.32-.99-.64-1.46-.98.65-.3,1.13-.91,1.25-1.65l.43.38c.43.43.88.86,1.45,1.22h0ZM38.58,68.68c.61-.23,1.07-.74,1.26-1.38l.1.08c.64.56,1.3,1.13,2.04,1.59.43.27.82.49,1.22.71-.63.29-1.32.58-2.05.87l-1.15-.68c-.47-.29-.85-.67-1.26-1.07l-.15-.13h0ZM46.15,68.15c-.5.31-1.09.63-1.75.96-.65-.32-1.2-.62-1.87-1.04-.32-.2-.64-.43-.95-.68.02,0,.03,0,.05,0,0,0-.01,0-.02,0,.04,0,.08,0,.12-.02,1.43-.07,2.57-1.27,2.57-2.75,0-.26-.09-.58-.21-.88.21.03.42.04.66.05.24,0,.47,0,.68-.02-.09.26-.15.53-.15.78,0,1.31.89,2.4,2.08,2.68-.4.33-.8.65-1.22.91h0ZM34.23,50.89c.15.14.3.21.44.25-.02.04-.03.1-.06.13-.08.08-.22.11-.42.08-.11-.01-.21-.07-.33-.18-.27-.25-.49-.74-.59-1.29-.04-.21-.06-.41-.06-.61,0-.52.13-.97.27-1.47l.1-.38c.43-.38.61-.84.7-1.22,0-.01,0-.02.01-.04.02,0,.05,0,.07,0,.03,0,.06,0,.1,0,.04,0,.08,0,.12,0,.02,0,.04,0,.07,0,.04,0,.08,0,.12,0,.03,0,.06,0,.09,0,.03,0,.06,0,.1-.01.05,0,.11-.02.16-.03,0,0,.02,0,.03,0,.01.15.04.31.04.44,0,.72-.23.99-.53,1.35l-.56.81c-.05.1-.25.6-.25,1.14,0,.37.1.75.41,1.05h0ZM36.92,28.42c-.05-.68-.35-1.29-.85-1.73-.48-.42-1.09-.63-1.72-.59.01-.08.05-.15.05-.24,0-.05,0-.1,0-.15-.05-.71-.37-1.36-.9-1.82-.07-.06-.15-.11-.23-.17-.09-.06-.17-.12-.27-.17.07-.04.13-.08.18-.15.5-.23,1.02-.46,1.57-.68,0,0-.01,0-.02.01l.38-.08c.21-.02.42.02.62.1.14.06.28.14.4.24.3.26.49.64.51,1.05.02.37-.08.73-.29,1.02-.13.18-.11.41,0,.6.12.19.37.27.58.23l.54-.11c.19-.01.4.05.57.2.21.18.33.47.36.82,0,.13-.11.31-.22.49l-.09.15c-.12.19-.07.41.06.59.14.18.4.23.61.17l.41-.13c.23-.02.45.06.63.21.19.17.3.4.32.66.01.21-.04.4-.14.57-.19.11-.37.22-.53.33-.11-.27-.28-.52-.5-.73-.48-.45-1.17-.67-1.9-.6-.05,0-.09.03-.14.04,0-.02.01-.05.01-.07s0-.04,0-.06h0ZM41.47,24.16c1.91-.47,3.63-.78,5.12-.91,2.44-.22,4.81-.21,6.91.02.02.01.04.03.07.04.27.1.46.35.48.65.03.41-.26.77-.65.79,0,0-.14,0-.14,0-.01,0-1.12-.12-1.12-.12-1.7-.04-3.26.03-4.68.21-1.82.23-3.61.59-5.25,1.04,0-.03,0-.07,0-.1,0-.68-.28-1.25-.74-1.61h0ZM52.73,25.77c.22.02.4.04.4.04-.01,0,.34,0,.34,0,.12,0,.23-.03.34-.06,0,.05-.02.1-.03.16,0,.05,0,.1,0,.15,0,.09.03.16.05.24-.35-.02-.7.04-1.02.17.01-.1.01-.2,0-.3,0-.14-.04-.28-.08-.41h0ZM51.26,28.76s-.08-.03-.13-.04c-.63-.06-1.19.1-1.62.46-.3.25-.51.6-.65,1-.19-.13-.4-.26-.63-.39-.14-.18-.2-.41-.19-.64.02-.26.13-.49.32-.66.18-.15.4-.23.63-.21l.41.12c.21.06.48,0,.61-.17.08-.11.13-.23.12-.36.28-.01.57-.03.85-.03.03,0,.4-.02.4-.02.01,0,.03,0,.04,0-.11.25-.18.52-.2.8,0,.02,0,.04,0,.06s.01.05.01.07h0ZM51.68,41.69c.42-.23.58-.65.58-1.05,0-.13-.03-.25-.06-.37.19-.1.36-.22.51-.35.04.12.08.25.11.41,0,.02,0,.03,0,.05.01.07.02.13.02.2,0,.09.01.19.01.29l-.06.44s0,0,0,.01c-.08.24-.22.44-.46.62l-.39.24c-.15.08-.53.13-.77-.09-.12-.11-.19-.22-.24-.32.24.06.5.07.74-.07h0ZM50.97,40.63s.12-.03.21-.05c0,.02,0,.04,0,.07,0,.03-.01.05-.02.07-.05-.01-.12-.04-.2-.09h0ZM52.15,35.56l-.05-.02c-.15-.06-.33-.17-.47-.08-.14.09-.23.11-.24.27l-.05.55c.02.13.03.23.03.3,0,.2-.09.26-.29.31-.21-.2-.34-1.28-.4-1.81l-.07-.57c-.01-.1-.04-.21-.07-.32,0,0,0-.01,0-.02-.09-.33-.24-.69-.44-1.04.17,0,.4,0,.4,0h.25c1.05.04,1.93.98,2.24,1.92l.09.36s0,.01,0,.02l.03.23s.01.44.02.58c-.24-.3-.56-.53-.99-.68h0ZM50.49,37.79c.24.17.54.22.84.14.42-.1.86-.37,1.02-.93.09.17.17.38.17.71,0,.21-.03.45-.08.75l-.12.29s0,0,0,0c-.23.4-.67.61-.92.7l-.53.12c-.72.04-1.68-.19-2.13-1.48,0,0,.02.07.02.07,0-.01-.05-.14-.08-.26l-.02-.06s0-.01,0-.02l-.15-.8c-.02-.15-.04-.29-.06-.43-.17-.99-.55-1.63-1.21-2.06,0,0-.24-.13-.37-.21-.01,0-.02-.02-.03-.02l-.15-.07c-.43-.21-.67-.32-.77-.79-.02-.09-.04-.18-.05-.26,0-.03,0-.06,0-.1,0-.05,0-.1,0-.15,0-.01,0-.03,0-.04,0-.12.02-.22.04-.31.04-.06.17-.3.22-.37.03-.02.07-.05.07-.05,1.08-.62,2.04.22,2.52.78.53.61.82,1.3.87,1.7l.07.55c.13,1.11.25,2.16.86,2.59h0ZM36.57,41.28c.09.14.19.27.35.36.24.14.5.13.74.07-.06.1-.12.21-.24.32-.24.22-.62.17-.77.09,0,0-.05-.03-.12-.07.02-.18.04-.37.04-.58,0-.06,0-.13,0-.2h0ZM37.43,40.68s-.02-.04-.02-.06c0-.07.02-.15.02-.15.04-.13.06-.24.09-.36.18.09.37.16.56.21-.08.02-.15.06-.22.11-.14.12-.33.23-.43.25h0ZM37.41,38.7c-.11-.14-.18-.29-.21-.45-.06-.29-.08-.54-.08-.75,0-.33.08-.54.17-.71.16.56.6.83,1.02.93.31.08.6.03.84-.14.61-.43.73-1.48.86-2.59l.03-.3s.03-.25.03-.25c.04-.31.21-.72.45-1.12.14-.23,1.41-2.22,2.93-1.35.26.15.36.46.31.94l-.05.34h0s0,0,0,0c-.07.3-.19.43-.3.51-.02.02-.47.27-.47.27-.65.32-1.54.76-1.79,2.6h0s-.02.15-.02.15c0,.03,0,.04,0,.04-.04.36-.1.68-.2.98-.14.44-.35.79-.61,1.04-.5.48-1.12.55-1.55.53-.34-.02-1-.21-1.36-.66h0ZM43.21,35.63c-.02.11-.04.22-.07.32-.18-.07-.4-.12-.65-.13.17-.33.38-.53.64-.68l.08.49h0ZM41.51,39.03c.16.14.33.26.52.35-.03,0-.05.02-.08.02-.14,0-.34-.1-.53-.24.03-.04.06-.08.09-.13h0ZM42,37.9c.08-.29.15-.6.18-.93.05-.05.11-.11.16-.11.39,0,.56.12.59.16l-.02-.04c.07.16.23.3.4.34.17.03.36,0,.49-.13.06-.06.12-.17.17-.31.07.06.13.11.21.16,0,.1-.01.2-.02.29v.06c0,.09-.01.17-.02.23-.15.36-.38.63-.68.77-.18.08-.38.12-.6.12-.36,0-.73-.29-.86-.61h0ZM44.16,34.99v-.08c.03-.13.06-.38.07-.47.14-.14.25-.29.34-.46,0,.06,0,.13.01.2,0,.02,0,.04,0,.07,0,.06.01.13.02.2,0,.02,0,.04,0,.07.02.18.05.36.1.53,0,.02.01.04.02.07.02.06.04.12.06.17,0,.02.02.04.02.06.03.07.06.14.1.19.11.15.29.23.47.22.19-.01.35-.13.43-.29.1-.21.15-.26.17-.27.03,0,.13,0,.38.09.06.02.21.11.21.11.03.02.07.06.1.14,0,0,0,.02,0,.03.01.03.02.07.02.11,0,.02,0,.04,0,.06,0,.06,0,.13,0,.22-.02.14-.08.57-.83.55-.33-.01-.65-.09-.93-.22-.35-.17-.59-.44-.71-.79l-.09-.5h0ZM45.21,37.49c.07.02.14.03.22.04.05.17.12.36.24.54,0,.01.02.02.02.03.05.07.11.13.17.19.02.02.04.04.06.05.08.06.18.12.29.15.21.07.44,0,.58-.17.13-.15.25-.23.36-.26.03,0,.06,0,.1-.01.02,0,.05,0,.07,0,.05,0,.1,0,.15.02.1.02.14.06.18.14l.05.17s.03.41.03.41c0,.31-.6.71-1.06.71-.87,0-1.47-.7-1.49-1.74,0,0,0-.13.01-.26h0ZM51.28,26.76c-.08,0-.32.02-.32.02-1.6.02-3.25.21-4.88.57-.85.19-1.66.4-2.41.63-.09,0-.18.02-.26.07-.03-.5-.24-.93-.58-1.24,1.5-.39,3.12-.7,4.76-.91,1.13-.14,2.36-.21,3.66-.21.06.06.13.12.23.15.16.05.25.19.27.41,0,.01,0,.03,0,.05,0,.13-.05.36-.47.46h0ZM47.26,28.2c-.15.26-.25.56-.27.87,0,.02,0,.05,0,.07-.35-.16-.71-.31-1.09-.46l-.08-.18c.17-.04.33-.08.5-.12.31-.07.63-.13.94-.18h0ZM43.07,29.29c.21-.07.44-.15.66-.22.48.14.94.29,1.38.45.12.17.32.24.52.2.74.29,1.41.61,1.99.94.01,0,.03.02.04.02.41.24.78.48,1.08.72.01.06.02.12.04.18-.99-.76-2.09-.9-3.09-.35-.03,0-.05,0-.08.01-.33.11-.65.3-.95.54-.14-.32-.37-.58-.67-.75-1.47-.84-2.95-.1-3.94,1.12-.22-.06-.48-.11-.76-.13.2-.37.28-.7.3-.96.23-.19.51-.37.8-.55.11-.02.22-.07.29-.16,0,0,.01-.02.02-.03.52-.29,1.12-.56,1.78-.81.23.07.47-.01.6-.22h0ZM39.42,33.11c-.16.31-.28.62-.35.9-.03.1-.05.19-.06.28l-.03.22c0,.05-.04.35-.04.35-.06.53-.19,1.62-.4,1.81-.2-.05-.29-.1-.29-.31,0-.08.01-.18.04-.31l-.05-.55c-.01-.16-.1-.18-.24-.27-.14-.09-.31.02-.47.08l-.05.02c-.14.05-.26.11-.38.17-.04.02-.07.04-.11.07-.08.05-.15.1-.22.16-.03.03-.07.06-.1.09-.07.06-.13.13-.18.2-.02.03-.05.05-.07.08-.07.1-.13.21-.18.33,0,.02-.02.05-.02.07-.04.1-.07.2-.1.31-.01.04-.02.09-.03.14-.02.1-.03.2-.04.3,0,.05,0,.1,0,.15,0,.03,0,.06,0,.09,0,.08,0,.17.01.25,0,.06,0,.11,0,.17.02.18.04.36.08.55,0,.02.02.04.02.07-.19.07-.36.19-.5.37,0,0,0,0,0,.01-.06.08-.12.17-.18.27-.01.02-.03.05-.04.07-.06.11-.11.24-.16.37l-.2.7c-.29,1.08-.48,1.53-.95,1.53-.25,0-.47-.25-.61-.45l-.07-.11-.26-.55c-.02-.06-.04-.12-.06-.17,0-.01,0-.03-.01-.04-.01-.04-.02-.07-.03-.11,0-.01,0-.03-.01-.04-.01-.04-.02-.07-.02-.11,0,0,0,0,0-.01,0-.04,0-.08,0-.12,0-.01,0-.02,0-.03,0-.03,0-.07,0-.11,0-.02,0-.03,0-.05,0-.03,0-.06.01-.09.02-.06.03-.12.03-.19l.04-.2c.02-.09.08-.19.18-.29h0s.05-.04.08-.06c.29.45.7.45.94.39,1.01-.22,1.1-1.72,1.13-3.02,0-.09,0-.17,0-.26l.02-.63.06-.33c.24-1.09,1.26-2.03,2.37-2.19.01,0,.02,0,.03,0,.12.03.25.02.37-.03.38-.02.79,0,1.12.05h0ZM36.53,39.52c0,.07,0,.15-.02.25,0-.06-.02-.12-.04-.17.04-.05.06-.08.06-.08h0ZM34.4,36.12c0,.06,0,.1,0,.1,0,.49-.04,1.62-.22,2.07-.03-.07-.05-.13-.05-.13-.07-.19-.21-.24-.41-.26-.05,0-.11,0-.17.02.01-.07.02-.15.05-.21l.13-.32c.26-.64.44-1.03.68-1.29,0,.01,0,.02,0,.03h0ZM34.07,34.97c-.69.42-.98,1.15-1.33,2.01l-.13.32c-.16.39-.18.79-.19,1.15v.16s-.06.07-.09.11c-.5-.53-1.08-1.21-1.34-1.68-.55-.98-.6-1.35-.72-2.16l-.04-.3c-.08-.43-.2-.79-.37-1.22-.23-.58-.53-1.1-.88-1.57.3,0,.59-.01.88-.07.04,0,.6-.02.6-.02l.92-.02c1.41.15,2.56.63,2.78,1.16.02.05.04.09.08.13.08.1.09.15.11.4,0,0,.02.17.03.29-.03.11-.21.9-.3,1.33h0ZM32.12,40.91c-.17-.06-.3-.19-.36-.27-.04-.06-.03-.12-.06-.18.1.02.2.02.3.01.03.14.07.28.12.44h0ZM31.77,42.64c0-.22-.02-.46-.05-.72.12.05.25.08.38.09.07.01.14.02.21.02h.05s.01,0,.02,0c-.11.34-.22.68-.36,1.01-.02.04-.04.08-.05.12-.05.12-.11.24-.17.36-.08.15-.16.3-.25.43,0,0,0,.02-.01.02-.3.43-.62.66-.99.72,0,0-.08.02-.08.02-.11.01-.33.01-.45-.11-.03-.03-.03-.12-.05-.17.11.04.22.07.35.06.46-.03.82-.2,1.07-.51.26-.31.38-.75.38-1.34h0ZM31.66,45.36c.03.15.05.27.05.34s-.03.1-.05.12c0,0-.12-.09-.12-.09-.1-.07-.21-.08-.32-.06,0-.03,0-.05,0-.06.16-.07.31-.15.45-.25h0ZM31.53,50.08c.33-.26.52-.51.62-.75,0,.23.03.48.08.74,0,0,0,0,0,0,.07.37.24.98.6,1.5-.04.05-.09.12-.09.12-.08.09-.2.2-.33.2-.12,0-.22-.08-.26-.13-.03-.03-.1-.14-.11-.5,0-.27-.26-.52-.53-.54,0,0-.7-.13-.87-.62.1.06.2.1.31.12l.58-.15h0ZM31.92,47.96c.14.01.28.01.42,0-.06.22-.11.45-.14.7-.05-.26-.15-.49-.28-.7h0ZM32.82,46.68s-.1.07-.1.07c-.29.15-.66.2-.84.11.12-.03.25-.05.34-.11.43-.28.55-.65.55-1.04,0-.3-.07-.61-.14-.88,0,0-.04-.21-.08-.38l-.02-.08c.32-.52.57-1.12.76-1.71.3.19.59.25.82.25.12,0,.22-.01.32-.03-.14.15-.26.36-.26.68,0,.05,0,.11,0,.17.05.5.31.74.52.85.13.07.26.09.39.09-.01.13-.04.25-.09.33l-.03.04c-.16.13-.62.08-.85.05l-.29-.02c-.14-.01-.26.03-.37.13-.11.09-.15.23-.16.37-.04.57-.19.91-.5,1.12h0ZM53.57,39.03s.02.04.03.06c.1.15.22.27.36.36.02.01.04.02.05.03.08.04.16.07.25.09.1.02.19.03.27.02.17-.02.33-.09.46-.22.07-.06.13-.14.19-.23,0,.01.02.02.02.03l.19.35s.08.26.08.26c0,.03.01.05.02.08.03.12.06.22.08.32,0,.03.01.06.02.08.02.09.03.18.03.27,0,0,0,.02,0,.02,0,.08-.02.16-.03.24,0,.05,0,.1-.02.16,0,0,0,0,0,.01,0,0,0,0,0,0l-.14.33s-.2.26-.21.26h0c-.11.11-.24.19-.37.25-.07.03-.13.05-.2.07-.07.02-.13.02-.2.02-.18,0-.4-.06-.61-.52,0-.01,0-.02,0-.03.03-.21.07-.47.07-.47,0-.21-.02-.4-.04-.58,0-.04,0-.07-.01-.1-.03-.17-.06-.33-.11-.48,0,0,0-.01,0-.02-.1-.32-.23-.57-.37-.76.02-.05.04-.1.06-.15h0c.04.09.08.17.13.25h0ZM54.2,36.13c.23.26.42.65.68,1.29,0,0,.12.29.13.31-.01,0-.02,0-.04,0-.2.02-.34.08-.41.26l-.09.24s-.02.07-.04.1c-.19-.45-.22-1.59-.22-2.07,0,0,0-.09,0-.13h0ZM55.28,45.6c-.01-.14-.05-.27-.16-.37-.11-.09-.23-.14-.37-.13l-.29.02c-.23.03-.61.07-.81-.03l-.05-.03c-.07-.06-.1-.21-.12-.37.13,0,.26-.02.39-.09.21-.11.46-.34.52-.85,0-.06,0-.11,0-.17,0-.32-.12-.53-.26-.68.1.02.21.03.32.03.28,0,.57-.07.84-.19.19.57.43,1.15.74,1.66l-.04.18c-.02.09-.04.17-.05.22v.06c-.08.28-.15.59-.15.88,0,.39.12.77.55,1.04.09.06.22.07.33.1-.16.07-.45.05-.74-.07-.05-.02-.1-.04-.1-.04-.37-.2-.55-.55-.6-1.19h0ZM56.69,47.99c-.05.07-.09.14-.13.22-.02-.07-.04-.14-.05-.2,0,0,.01,0,.02,0,.06,0,.11,0,.16-.02h0ZM56.67,50.35c.03-.18.05-.35.06-.52.09.1.2.2.34.3,0,0,.57.15.57.15.12-.02.23-.07.33-.13-.15.5-.87.63-.88.63-.27.02-.53.27-.53.54,0,.36-.08.47-.11.5-.05.05-.14.13-.26.13-.05,0-.1-.02-.15-.05.3-.4.52-.94.63-1.55h0ZM57.38,45.72c-.11-.02-.23-.01-.32.06,0,0-.12.09-.12.09-.03-.03-.05-.05-.05-.13s.02-.19.05-.34c.15.1.3.19.45.25,0,.02,0,.04,0,.06h0ZM57.06,44.02s0-.02-.01-.02c-.09-.13-.18-.28-.25-.43-.06-.11-.11-.23-.16-.34-.02-.05-.04-.09-.06-.14-.13-.33-.25-.68-.36-1.01h.08c.07,0,.14-.01.21-.02.13-.01.26-.04.38-.09-.03.26-.05.51-.05.72,0,.59.12,1.03.38,1.34.25.3.61.47,1.07.51.13,0,.24-.02.35-.06-.02.05-.02.14-.05.17-.13.12-.34.12-.46.11,0,0-.07-.01-.07-.01-.37-.06-.69-.3-.99-.72h0ZM56.69,40.53c.08,0,.16,0,.24-.03-.03.06-.05.13-.09.18h0s0,0,0,0c-.03.05-.09.11-.16.18,0-.07.01-.14.01-.21,0-.03,0-.06,0-.09,0-.01,0-.02,0-.03h0ZM56.27,38.9c-.03-.05-.05-.1-.08-.15v-.27c-.03-.35-.04-.76-.2-1.14l-.13-.31c-.42-1.04-.78-1.88-1.83-2.23,0-.03-.02-.05-.03-.08-.08-.35-.19-.79-.21-.87.01-.12.03-.28.03-.28.02-.26.03-.31.11-.4.03-.04.06-.08.07-.13.22-.53,1.37-1,2.79-1.16,0,0,.91.02.91.02,0,0,.56.01.6.02.48.1.96.1,1.45.02-.27.4-.5.83-.69,1.31-.17.44-.29.79-.37,1.21,0,.02-.05.32-.05.32-.12.81-.17,1.18-.72,2.16-.28.5-1.06,1.38-1.66,1.98h0ZM55.08,23.67c.05.02.1.05.15.07-.04.02-.09.04-.13.06,0-.04-.01-.09-.02-.13h0ZM41.23,20.76c.73-.16,1.45-.3,2.17-.42,0,0,.01,0,.02,0,.1.01.2,0,.28-.05,4.82-.77,9.24-.61,11.79.45.25.14.46.37.48.68,0,.02,0,.04,0,.06,0,.47-.35.87-.8.9,0,0-.13,0-.14,0,0,0-.47-.07-.47-.07-1.22-.18-2.54-.28-3.93-.3-1.34-.02-2.73.03-4.14.16-1.61.15-3.48.49-5.56,1.01.01-.05.03-.1.03-.15.01-.1.02-.2.02-.3,0-.41-.11-.81-.31-1.16-.08-.14-.17-.27-.27-.39-.06-.07-.14-.13-.21-.19.34-.08.69-.17,1.04-.24h0ZM39.33,24.44c.08.2.3.34.52.34h.55c.62.08.79.69.73,1.18-.01.13-.16.28-.31.44l-.12.13c-.15.16-.15.39-.05.59.1.2.35.31.57.28l.43-.04c.49.06.76.42.7.94,0,0-.03.07-.07.16-.39.15-.76.3-1.11.46,0-.01,0-.02,0-.03-.04-.54-.28-1.04-.69-1.39-.31-.27-.69-.41-1.09-.44.01-.08.05-.14.05-.23,0-.03,0-.06,0-.09-.04-.63-.3-1.18-.72-1.55-.32-.28-.71-.41-1.13-.44.04-.19.09-.38.09-.58,0-.06,0-.12,0-.18-.04-.62-.3-1.18-.72-1.61-.05-.06-.1-.12-.16-.17-.07-.06-.14-.1-.22-.15.61-.21,1.25-.41,1.91-.59,0,0,0,0,0,0,.38,0,.71.12.96.33.05.04.1.08.14.12.24.27.35.63.3,1.01-.03.23-.11.45-.23.64-.09.06-.16.15-.2.25-.01.02-.03.03-.04.05-.16.15-.19.38-.11.58h0ZM32.19,21.64c.02-.32.23-.55.48-.69,1.71-.71,4.17-1.03,7.07-.93-1.93.48-3.72,1.06-5.34,1.71-.04,0-.06.01-.06.01.01,0,.02,0,.03,0-.62.25-1.21.51-1.78.78-.34-.13-.41-.52-.41-.77,0-.04,0-.08,0-.11h0ZM28.27,26.63c.65-.67,1.55-1.36,2.67-2.04.05-.01.11-.03.15-.05.19-.11.41-.18.63-.2.08,0,.16,0,.24,0,.3.03.58.15.82.35.32.28.51.66.53,1.09.02.31-.08.53-.29.86-.14.21-.1.49.08.67.18.18.46.2.67.07.19-.13.4-.2.63-.21.35-.03.69.09.97.33.29.25.46.6.49,1,0,.1-.11.46-.23.74-.09.21-.05.45.12.6.16.15.4.19.6.09l.14-.07c.17-.09.49-.25.67-.28.41-.04.8.07,1.05.32.23.21.34.51.33.86.01.21-.01.73-.61,1.27-.06,0-.12.01-.17.02-.9.13-1.73.62-2.34,1.29v-.05c-.02-.27-.06-.58-.29-.92-.02-.03-.03-.06-.05-.08,0,0,0,.02.01.02-.63-1.24-2.7-1.6-3.59-1.7l-1.07.02-.55.02s-.1,0-.14.01c-.6.14-1.23.08-1.87-.17-.44-.35-.71-.74-.8-1.17-.02-.11-.03-.22-.03-.33,0-.71.43-1.51,1.24-2.35h0ZM17.89,37.14c.2.51.51.93.91,1.24.48.38,1.08.61,1.76.61.28,0,.56-.05.82-.13.36,1.06,1.22,1.72,2.41,1.72.58,0,1.11-.2,1.57-.52.4,1.11,1.37,1.9,2.52,1.9.95,0,1.82-.49,2.34-1.3.16-.25.09-.58-.16-.74-.25-.16-.58-.09-.73.16-.32.5-.86.81-1.45.81-.91,0-1.66-.86-1.66-1.91,0-.24-.16-.45-.38-.51-.23-.07-.47.03-.6.23-.32.51-.87.82-1.46.82-.88,0-1.43-.51-1.53-1.43-.02-.18-.13-.33-.29-.41-.16-.08-.35-.07-.51.02-.27.16-.59.24-.9.24-.53,0-.97-.19-1.29-.53-.32-.34-.52-.84-.57-1.45,0,0,.03-.47.03-.52,1.33-2.42,3.05-4.1,5.02-4.69.02,0,.04-.01.06-.02.08,0,.3-.04.3-.04,1.93-.4,3.92.89,4.77,3.05.15.38.25.67.31,1.01,0,0,.04.28.04.28.12.86.2,1.37.84,2.53.22.39.59.87.99,1.33-.09.05-.16.12-.21.21-.05.09-.31.54-.33.86-.02.34.07.71.24,1.05-.07.22-.11.45-.11.68,0,.11,0,.22.02.33.03.26.05.46.05.63,0,.44-.09.61-.14.67-.02.03-.09.09-.28.11-.04-.03-.12-.11-.18-.22-.09-.16-.27-.23-.44-.24-.18-.01-.36.09-.47.23-.21-.03-.43.07-.54.27-.33.61-.96.98-1.63.98-1.03,0-1.87-.87-1.87-1.95,0-.27-.2-.5-.47-.53-.27-.03-.52.14-.58.4-.19.79-.92,1.3-1.85,1.3-.86,0-1.6-.6-1.81-1.46-.04-.17-.16-.31-.32-.37-.16-.06-.34-.04-.49.05-.31.21-.53.28-.88.28s-.79-.08-1.18-.5c-.27-.29-.51-.74-.7-1.45,0-.01-.01-.02-.01-.03.29-1.08.64-2.1,1.04-3.04h0ZM16.44,41.94c.24.38.51.65.8.85.5.34,1.03.45,1.5.45.34,0,.63-.07.91-.18.49,1,1.46,1.68,2.59,1.68.88,0,1.63-.35,2.17-.91.48.98,1.45,1.68,2.6,1.68.71,0,1.38-.27,1.9-.73.09.26.23.45.35.58.23.23.54.36.88.4l.03.32.06.6c.06.73.41,1.27.66,1.66.18.28.28.42.28.54,0,.07-.05.13-.12.2-.07-.08-.14-.18-.18-.24l-.35-.37c-.13-.14-.26-.08-.44-.04-.18.04-.27.29-.33.47l-.1.33-.16.57s0,.09,0,.13c0,.51.21.96.6,1.3.27.23.6.37.91.46.04.26.13.58.37.82.29.3.66.46,1.05.45.28,0,.71-.11,1.11-.56,0,0,.04-.06.09-.13.14.06.28.11.43.13.05,0,.09,0,.14,0-.09,1.91.24,3.33,1.23,5.31.11.21.21.41.31.6-.16.06-.34.1-.51.11-.65-.2-1.03-.44-1.51-1.28-.01-.02-.02-.04-.03-.05l-.46-.63c-.73-1.66-2.31-2.8-4.17-3.07-.41-2.13-.64-4.94-.56-6.88.02-.08.05-.15.07-.23.06-.29-.12-.57-.41-.63-.29-.06-.57.13-.63.41-.15.71-.76,1.22-1.45,1.22-.57,0-1.1-.35-1.35-.89-.1-.23-.35-.35-.6-.3-.25.05-.42.27-.42.52,0,.93-.74,1.64-1.73,1.64-.74,0-1.3-.81-1.52-1.56-.07-.23-.29-.39-.53-.39-.24,0-.45.18-.5.42-.19.87-.86,1.49-1.65,1.49-.56,0-1.05-.33-1.39-.88-.24-.39-.42-.88-.49-1.45,0-.01,0-.02-.01-.03.11-1.37.3-2.68.56-3.93h0ZM31.06,61.93s0,0,0,0c-.04.82-.68,1.48-1.48,1.48-.16,0-.31-.04-.47-.09-.06-.05-.11-.1-.11-.1-.15-.13-.35-.18-.54-.11-.19.07-.32.23-.35.43-.1.72-.63,1.16-1.42,1.16-.47,0-.83-.15-1.08-.44-.02-.02-.04-.03-.06-.05-1.37-2.97-1.58-5.76-.36-7.86.18-.36.37-.7.59-.99.11-.06.2-.16.24-.28.19-.2.42-.35.68-.44.51-.21.92-.22,1.54-.22,1.81,0,3.4,1,4.05,2.55.02.04.04.07.06.11l.47.64c.16.28.31.51.48.71.09.22.23.93.23,1.17,0,.86-.67,1.56-1.5,1.56l-.25-.05c-.09-.02-.29-.04-.38,0l-.07.02c-.15.05-.26.18-.32.33-.02.06-.03.12-.03.17,0,.1.03.21.08.29h0ZM23.53,61.38c-.1-.22-.41-.92-.41-.92,0,0-.64-1.47-.64-1.47,0,0-.28-.84-.28-.84,0-.01-.63-1.83-.63-1.83-.76-2.55-.96-5.19-1.01-7.57.39.35.87.57,1.43.57.73,0,1.37-.25,1.85-.66.17,1.86.56,3.97,1.1,6.06-.27.35-.48.74-.67,1.12-.91,1.57-1.13,3.47-.73,5.54h0ZM24.85,48.02c.37.22.78.35,1.22.35.49,0,.96-.16,1.36-.42.04,1.73.24,3.74.54,5.4-.6,0-1.09.05-1.66.29-.18.06-.34.15-.5.25-.5-2.04-.84-4.11-.97-5.87h0ZM29.5,72.46l-.04.08c-.34.63-.98,1.05-1.62,1.05-.51.03-.79-.03-1.23-.24-.08-.04-.15-.07-.24-.12,0,0-.58-.35-.66-.4-.09-.07-.35-.28-.35-.28l-.31-.29s-.06-.07-.07-.07c-.69-.58-1.91-1.97-2.51-2.87,0,0-2.16-3.36-2.16-3.36-.45-.66-.74-1.19-1.13-1.93-1.95-3.69-3.12-8.22-3.37-13.1-.03-.67-.05-1.33-.05-1.98,0-.22,0-.43,0-.65.15.18.32.35.5.48.44.33.95.51,1.51.51.64,0,1.23-.25,1.69-.67.04,2.49.25,5.28,1.06,8l.65,1.88s.29.84.29.84c0,.01.68,1.57.68,1.57l.43.96c.62,1.28,2.01,3.35,2.93,4.5,1.06,1.81,2.49,3.65,4.24,5.4-.04.23-.08.32-.26.68h0ZM32.27,72.61c-.06-.05-.12-.09-.19-.11-.8-.7-1.55-1.43-2.24-2.16,1.23-.13,2.2-1.18,2.2-2.48,0-.12-.03-.23-.04-.34.03,0,.04.01.07.01,1.31,0,2.36-1.07,2.42-2.39.18.03.36.05.52.05,1.35,0,2.44-1.12,2.44-2.51,0-.82-.4-1.6-1.06-2.07-.24-.17-.57-.11-.74.13-.17.24-.11.57.13.74.38.27.61.72.61,1.2,0,.79-.62,1.44-1.38,1.44-.44,0-.65-.07-.86-.29-.19-.2-.5-.22-.71-.05-.13.1-.2.26-.2.42,0,.1.03.2.08.29,0,0,.02.03.04.07.05.15.08.31.08.47,0,.79-.62,1.44-1.38,1.44-.32,0-.5-.06-.74-.26-.22-.18-.54-.15-.73.06-.19.22-.17.55.04.75l.18.17c.09.17.15.42.15.67,0,.79-.62,1.44-1.38,1.44-.36,0-.7-.14-.95-.4-.05-.05-.11-.09-.17-.12-.78-.96-1.46-1.92-2.02-2.87-.02-.06-.04-.12-.09-.18.11.01.21.03.33.03,1.07,0,1.89-.54,2.26-1.4.21.05.41.12.62.12,1.29,0,2.31-.99,2.49-2.26,1.39-.03,2.52-1.19,2.52-2.62,0-.07,0-.16-.02-.26.14.05.29.11.46.15.05.01.09.02.14.02.39,0,.77-.09,1.12-.26.32.47.69.89,1.22,1.34,1.01.86,1.56,1.08,2.24,1.36l.73.31,1.07.55c.41.22.79.43,1.23.6.23.42.47.99.47,1.21,0,.94-.73,1.7-1.63,1.7-.04,0-.09,0-.13.02-.37.09-1.28-.15-1.51-.3h0s-.26-.21-.26-.21c-.15-.33-.38-.62-.68-.83-.24-.17-.57-.11-.74.13-.17.24-.11.57.13.74.08.06.15.13.21.22.01.14.07.28.18.38.02.08.03.17.03.26,0,.57-.44,1.03-.98,1.03-.31,0-.59-.15-.78-.4-.14-.19-.4-.27-.62-.18-.22.09-.36.31-.34.55v.13c.02.1.06.2.12.28.18.23.26.44.26.7,0,.64-.5,1.17-1.11,1.17-.15,0-.29-.05-.42-.11-.06-.05-.12-.09-.18-.14,0,0,0,0,0,0,0,0-.02-.01-.03-.02-.12-.1-.25-.19-.37-.29-.23-.18-.56-.15-.75.08-.18.23-.15.56.08.75.1.08.21.16.31.24l.03.05s.05.05.07.08c.23.26.37.59.37.94,0,.78-.61,1.42-1.36,1.42-.33,0-.65-.13-.89-.35h0ZM33.81,73.93c.99-.29,1.73-1.2,1.77-2.3.37.26.74.51,1.11.76-.26.29-.42.68-.42,1.11,0,.26.06.51.17.73-.29.03-.58.07-.88.1-.32,0-.63.09-.9.24-.29-.21-.57-.42-.84-.64h0ZM55.66,78.1c.73,0,1.53.55,1.53,1.36s-.62,1.46-1.39,1.46c-.02,0-.05,0-.05,0-.06,0-.1.05-.15.07-2.51.67-5.85.43-9.56-.69.38-.16.77-.32,1.15-.49,1.3-.58,2.61-1.25,3.9-2,1.13.16,2.25.26,3.24.29.48.01.93.01,1.33,0h0ZM52.57,76.93c.48-.31.95-.62,1.41-.94.04.11.07.2.07.26,0,.31-.15.59-.39.76-.35-.02-.72-.05-1.1-.09h0ZM51.62,76.28c-2.52,1.57-5.11,2.8-7.6,3.68-4.16,1.46-8.06,1.9-10.93,1.13-.05-.02-.09-.07-.15-.07,0,0-.04,0-.05,0-.77,0-1.39-.66-1.39-1.46s.81-1.36,1.56-1.36c.53.03,1.1.03,1.71,0,4.53-.19,11.08-1.88,16.3-5.12l.48-.3,1.57-1.01c.06,1.08.78,1.97,1.76,2.26-1.02.79-2.11,1.55-3.26,2.27h0ZM57.85,66.4c-.2-.17-.49-.18-.69,0q-.18.15-.53.15c-.76,0-1.38-.65-1.38-1.44,0-.17.03-.34.09-.5.02-.04.03-.09.03-.13v-.09c.03-.22-.1-.44-.3-.53-.21-.09-.45-.05-.6.11-.2.21-.31.24-.78.24-.76,0-1.38-.65-1.38-1.44,0-.48.23-.93.61-1.2.24-.17.3-.5.13-.74-.17-.24-.5-.3-.74-.13-.66.47-1.06,1.24-1.06,2.07,0,1.38,1.1,2.51,2.44,2.51.19,0,.36-.01.53-.04.07,1.32,1.11,2.38,2.42,2.38.02,0,.03,0,.05,0-.02.12-.03.24-.03.33,0,1.3.97,2.35,2.2,2.48-.17.18-.34.36-.51.53-.1.05-.18.13-.23.23-.47.47-.97.94-1.49,1.39-.07.02-.13.06-.19.11-.25.23-.57.35-.89.35-.75,0-1.36-.64-1.36-1.42,0-.28.24-.71.39-.91.14-.19.14-.46-.01-.65-.15-.19-.41-.25-.63-.16l-.16.07s-.05.03-.08.04q-.06.04-.21.04h-.19c-.61,0-1.11-.53-1.11-1.17,0-.26.08-.47.26-.7.06-.08.1-.18.11-.28v-.13c.03-.24-.1-.46-.33-.55-.22-.08-.48-.01-.62.18-.19.26-.47.4-.78.4-.54,0-.98-.46-.98-1.03,0-.09.01-.18.03-.26.11-.1.18-.24.19-.38.06-.08.13-.16.21-.22.24-.17.3-.5.12-.74-.17-.24-.5-.3-.74-.13-.3.21-.53.5-.68.83l-.11.1s0,0,0,0c-.26.17-.55.26-.86.26-.9,0-1.63-.76-1.63-1.7,0-.25.19-.73.38-1.07.68-.26,1.26-.65,1.88-1.07l.8-.53c.69-.44,1.06-.72,1.64-1.23.5-.44.89-.82,1.25-1.27.3.21.61.23.99.22h.21s.1,0,.14-.02c.17-.05.32-.1.47-.16-.02.1-.03.19-.03.26,0,1.45,1.15,2.63,2.56,2.63h0c.23,1.21,1.22,2.14,2.47,2.14.16,0,.32-.06.48-.09.33.92,1.18,1.49,2.39,1.49.12,0,.23-.01.35-.03-.59,1.02-1.3,2.04-2.13,3.06-.06.03-.12.06-.16.11-.26.26-.6.4-.95.4-.76,0-1.38-.65-1.38-1.44,0-.2.06-.5.1-.65.05-.08.13-.2.13-.2.06-.09.08-.19.08-.29,0-.15-.06-.29-.18-.4h0ZM64.42,55.9c-.15-.29-.32-.6-.51-.89.01-.03.03-.04.04-.07.6-2.13.99-4.29,1.16-6.36.48.41,1.12.65,1.84.65.61,0,1.13-.27,1.54-.68-.09,2.87-.46,5.44-1.13,7.67-.26.89-.68,2.22-1.15,3.49h0c-.4,1.07-.76,1.89-1.07,2.42-.08.14-.17.29-.27.45.72-2.49.63-4.81-.46-6.67h0ZM63.07,54.1c-.21-.16-.45-.29-.72-.38-.48-.2-.9-.26-1.4-.28.35-1.83.56-3.77.58-5.57.39.24.84.38,1.32.38.44,0,.86-.13,1.24-.35-.12,2-.47,4.11-1.02,6.2h0ZM61.96,54.71c.74.27,1.14.95,1.52,1.7,1.23,2.11,1.02,4.87-.31,7.81-.02.02-.05.03-.06.05-.28.33-.69.52-1.11.52-.5,0-1.35-.13-1.48-1.01v-.05c0-.18-.09-.34-.23-.44-.15-.1-.33-.12-.5-.05l-.13.05c-.17.07-.35.1-.53.1-.77,0-1.38-.61-1.46-1.39.05-.08.07-.16.07-.24,0-.11-.04-.22-.1-.33-.11-.18-.36-.27-.57-.24l-.41.06c-.83,0-1.5-.7-1.5-1.56,0-.2.26-1.11.38-1.37,0,0,0,0,0-.01.11-.15.21-.31.32-.5l.46-.64c.6-.97,1.85-2.51,3.82-2.65,0,0,.01,0,.02,0,.1.02.19,0,.28-.02.62,0,1.03.01,1.51.21h0ZM73.17,48.84c0,.65-.02,1.31-.05,1.98-.26,5.16-1.43,9.71-3.47,13.53-.39.73-.81,1.43-1.26,2.09,0,0-2.18,3.38-2.18,3.38-.6.89-1.82,2.28-2.51,2.86,0,0-.08.09-.09.09l-.27.26s-.28.23-.37.3c-.05.03-.69.41-.69.41-.34.18-.56.28-.82.31-.15.02-.32,0-.54-.03-.03,0-.06,0-.08,0-.66,0-1.27-.37-1.6-.96-.02-.1-.06-.23-.06-.23-.08-.29-.13-.5-.13-.8,0-.09,0-.2.02-.32,1.26-1.28,2.36-2.61,3.26-3.94.06-.03.11-.07.16-.12,1.22-1.44,2.79-3.62,3.57-4.97.34-.59.73-1.46,1.15-2.58h0c.48-1.3.9-2.65,1.17-3.56.68-2.31,1.07-4.97,1.17-7.91.45.36.99.58,1.59.58.54,0,1.06-.18,1.51-.48.18-.12.35-.26.51-.42,0,.19,0,.37,0,.56h0ZM73.06,46.02s0,0,0,0c0,.49-.21.97-.52,1.34-.36.44-.87.75-1.4.75-.78,0-1.46-.61-1.65-1.49-.05-.24-.26-.41-.5-.42-.24,0-.46.15-.53.39-.22.75-.78,1.56-1.52,1.56-.99,0-1.73-.7-1.73-1.64,0-.25-.18-.47-.42-.52-.25-.05-.49.07-.6.3-.24.54-.77.89-1.35.89s-1.13-.38-1.36-.94c-.01-.03-.02-.06-.03-.09-.02-.06-.04-.13-.06-.19-.06-.29-.34-.47-.63-.41-.29.06-.47.34-.41.63.02.12.06.24.1.35.08,2.15-.14,4.65-.6,6.94-1.73.2-3.27,1.28-4.4,3.09.02-.03-.46.63-.46.63-.01.02-.02.03-.03.05-.48.86-.86,1.1-1.54,1.29-.07,0-.14,0-.14,0-.18,0-.27,0-.34-.02.08-.12.16-.25.24-.38,1.1-1.82,1.5-3.83,1.72-5.46.1-.02.19-.04.29-.08.36.34.73.42.98.43.39,0,.76-.15,1.05-.45.24-.25.33-.56.37-.82.3-.09.63-.22.9-.46.4-.34.6-.79.6-1.3,0-.04,0-.09,0-.13l-.16-.57-.11-.33c-.06-.18-.14-.42-.33-.47-.18-.04-.31-.09-.44.04l-.35.37c-.04.06-.11.15-.18.24-.07-.07-.12-.13-.12-.2,0-.11.09-.26.28-.54.26-.39.61-.92.66-1.66l.07-.61.03-.32c.35-.04.65-.18.88-.41.18-.18.38-.48.44-.96.55.6,1.32.95,2.14.95,1.13,0,2.11-.65,2.6-1.62.54.53,1.3.85,2.16.85,1.11,0,2.07-.7,2.56-1.73.27.13.57.23.94.23.5,0,1.02-.14,1.48-.4.32-.18.61-.42.86-.71.25,1.27.44,2.62.54,4.01h0ZM70.23,35.87c0,.57-.24,1.07-.61,1.43-.33.31-.77.51-1.25.51-.29,0-.66-.21-.92-.36-.16-.09-.35-.1-.51-.01-.16.08-.27.24-.29.41-.11.97-.68,1.55-1.51,1.55-.59,0-1.13-.31-1.46-.82-.13-.2-.37-.29-.6-.23-.23.07-.38.27-.38.51,0,1.05-.74,1.91-1.66,1.91-.58,0-1.12-.3-1.45-.81-.16-.25-.49-.32-.74-.16-.25.16-.32.49-.16.73.52.81,1.4,1.3,2.34,1.3,1.15,0,2.13-.79,2.52-1.9.46.32,1,.52,1.57.52,1.15,0,2.01-.69,2.38-1.78.26.11.55.2.85.2.64,0,1.24-.22,1.72-.58.42-.31.75-.73.96-1.23.42.99.78,2.07,1.08,3.22,0,.01,0,.02,0,.03-.06.57-.36,1.02-.77,1.32-.35.26-.78.41-1.17.41-.31,0-.55-.12-.91-.36-.14-.1-.33-.11-.49-.05-.16.06-.28.2-.32.37-.22.89-.97,1.54-1.79,1.54-.87,0-1.56-.44-1.8-1.14-.1-.28-.4-.43-.68-.33-.07.02-.13.06-.19.11-.13.09-.23.22-.24.39-.1,1-.9,1.75-1.86,1.75-.67,0-1.29-.38-1.63-.98-.14-.26-.47-.35-.72-.21-.05.03-.09.07-.13.11h0c-.11-.15-.29-.26-.47-.24-.18.01-.36.09-.44.24-.06.11-.14.19-.18.22-.2-.02-.26-.08-.28-.11-.05-.06-.14-.23-.14-.67,0-.17.01-.38.05-.63.02-.11.02-.22.02-.33,0-.23-.05-.45-.11-.68.18-.34.27-.71.24-1.05-.02-.31-.28-.77-.33-.85-.03-.05-.07-.1-.12-.14.49-.54.98-1.13,1.22-1.56.65-1.16.72-1.67.84-2.53l.04-.3c.06-.32.16-.61.31-.99.85-2.16,2.83-3.45,4.73-3.06.03,0,.17.02.27.04.03,0,.05,0,.07,0,1.99.57,3.72,2.25,5.06,4.69l.04.58h0Z"/>
    <path class="cls-1" d="M47.83,45.96l.28-.15.46-.23c.58-.26.97-.26,1.61-.23.31.01.53.08.79.17l.49.15c.11.03.21-.03.24-.14.03-.11-.04-.22-.14-.25l-.46-.14c-.27-.09-.53-.18-.9-.19-.67-.02-1.12-.02-1.78.27l-.49.25-.27.14c-.1.05-.14.18-.08.27.05.1.17.14.27.08h0Z"/>
  </g>
  <line class="cls-2" x1="104.15" y1=".14" x2="89.51" y2="100.24"/>
</svg>